<svg width="52" height="52" viewBox="0 0 52 52" fill="none" xmlns="http://www.w3.org/2000/svg">
<rect width="52" height="52" rx="10" fill="#2B2B2B"/>
<path d="M36.6853 15.8192C36.6763 15.8018 36.6615 15.7883 36.6435 15.7809C34.5586 14.8243 32.3585 14.1422 30.0982 13.7516C30.0776 13.7478 30.0564 13.7506 30.0375 13.7595C30.0187 13.7684 30.0031 13.7831 29.993 13.8014C29.6934 14.3452 29.4215 14.9037 29.1782 15.4748C26.7416 15.105 24.2633 15.105 21.8267 15.4748C21.5818 14.9022 21.3055 14.3436 20.999 13.8014C20.9885 13.7835 20.9729 13.7692 20.9541 13.7603C20.9353 13.7514 20.9143 13.7484 20.8938 13.7516C18.6333 14.1414 16.433 14.8235 14.3484 15.7809C14.3305 15.7885 14.3155 15.8014 14.3053 15.8179C10.1365 22.0434 8.99454 28.1159 9.55476 34.1131C9.55633 34.1278 9.56085 34.142 9.56804 34.155C9.57522 34.1679 9.58494 34.1792 9.59659 34.1883C12.024 35.9856 14.7392 37.3576 17.6261 38.2455C17.6464 38.2516 17.6681 38.2513 17.6883 38.2447C17.7085 38.2381 17.7261 38.2255 17.7389 38.2085C18.359 37.3649 18.9084 36.4715 19.3816 35.5375C19.3881 35.5247 19.3918 35.5106 19.3924 35.4963C19.3931 35.4819 19.3908 35.4676 19.3855 35.4542C19.3802 35.4408 19.3722 35.4287 19.3619 35.4187C19.3516 35.4087 19.3393 35.4009 19.3258 35.396C18.4594 35.0645 17.6207 34.6649 16.8174 34.2009C16.8028 34.1923 16.7906 34.1803 16.7817 34.1658C16.7729 34.1514 16.7678 34.135 16.7668 34.1181C16.7658 34.1012 16.7689 34.0843 16.776 34.069C16.7831 34.0536 16.7938 34.0402 16.8073 34.0299C16.9759 33.9037 17.1445 33.7723 17.3055 33.6396C17.3198 33.6279 17.3371 33.6203 17.3554 33.6178C17.3738 33.6154 17.3925 33.6181 17.4094 33.6256C22.6719 36.0273 28.3693 36.0273 33.5695 33.6256C33.5865 33.6176 33.6053 33.6145 33.624 33.6167C33.6426 33.619 33.6602 33.6265 33.6747 33.6384C33.8357 33.771 34.0043 33.9037 34.1741 34.0299C34.1877 34.0401 34.1985 34.0534 34.2057 34.0687C34.2129 34.084 34.2162 34.1009 34.2153 34.1178C34.2145 34.1347 34.2094 34.1511 34.2007 34.1656C34.192 34.1801 34.1798 34.1922 34.1653 34.2009C33.3638 34.6688 32.5243 35.0681 31.6557 35.3947C31.6422 35.3998 31.6299 35.4078 31.6197 35.418C31.6095 35.4282 31.6015 35.4404 31.5964 35.4539C31.5912 35.4674 31.589 35.4818 31.5898 35.4962C31.5905 35.5106 31.5944 35.5247 31.601 35.5375C32.0821 36.4663 32.6307 37.3586 33.2424 38.2071C33.2548 38.2245 33.2724 38.2375 33.2926 38.2444C33.3129 38.2513 33.3348 38.2516 33.3552 38.2454C36.2473 37.3604 38.9672 35.9884 41.3977 34.1883C41.4095 34.1797 41.4193 34.1686 41.4266 34.1559C41.4338 34.1431 41.4382 34.129 41.4395 34.1144C42.1102 27.1809 40.3166 21.1582 36.6853 15.8192ZM20.1675 30.4614C18.5831 30.4614 17.2776 29.0074 17.2776 27.2218C17.2776 25.4361 18.5577 23.982 20.1675 23.982C21.7898 23.982 23.0826 25.4488 23.0573 27.2217C23.0573 29.0074 21.7771 30.4614 20.1675 30.4614ZM30.8523 30.4614C29.268 30.4614 27.9625 29.0074 27.9625 27.2218C27.9625 25.4361 29.2426 23.982 30.8523 23.982C32.4747 23.982 33.7675 25.4488 33.7422 27.2217C33.7422 29.0074 32.4747 30.4614 30.8523 30.4614Z" fill="white"/>
</svg>
