<svg width="52" height="52" viewBox="0 0 52 52" fill="none" xmlns="http://www.w3.org/2000/svg">
<rect width="52" height="52" rx="10" fill="#2B2B2B"/>
<g clip-path="url(#clip0_169_10)">
<path d="M46.3438 26C46.3438 14.7617 37.2383 5.65625 26 5.65625C14.7617 5.65625 5.65625 14.7617 5.65625 26C5.65625 36.1538 13.0957 44.5702 22.8213 46.0977V31.8808H17.6533V26H22.8213V21.5178C22.8213 16.4196 25.8564 13.6034 30.5052 13.6034C32.7315 13.6034 35.0595 14.0005 35.0595 14.0005V19.0044H32.4936C29.967 19.0044 29.1787 20.5728 29.1787 22.1814V26H34.8208L33.9185 31.8808H29.1787V46.0977C38.9043 44.5702 46.3438 36.1538 46.3438 26Z" fill="white"/>
</g>
<defs>
<clipPath id="clip0_169_10">
<rect width="42" height="42" fill="white" transform="translate(5 5)"/>
</clipPath>
</defs>
</svg>
