<svg width="52" height="52" viewBox="0 0 52 52" fill="none" xmlns="http://www.w3.org/2000/svg">
<rect width="52" height="52" rx="10" fill="#2B2B2B"/>
<path d="M19.0446 37.0469C19.0446 37.2031 18.8637 37.3281 18.6357 37.3281C18.3762 37.3516 18.1954 37.2266 18.1954 37.0469C18.1954 36.8906 18.3762 36.7656 18.6042 36.7656C18.8401 36.7422 19.0446 36.8672 19.0446 37.0469ZM16.5992 36.6953C16.5442 36.8516 16.7014 37.0312 16.9373 37.0781C17.1417 37.1562 17.3776 37.0781 17.4248 36.9219C17.472 36.7656 17.3226 36.5859 17.0867 36.5156C16.8823 36.4609 16.6542 36.5391 16.5992 36.6953ZM20.0746 36.5625C19.8466 36.6172 19.6893 36.7656 19.7129 36.9453C19.7365 37.1016 19.9409 37.2031 20.1768 37.1484C20.4048 37.0937 20.5621 36.9453 20.5385 36.7891C20.5149 36.6406 20.3026 36.5391 20.0746 36.5625ZM25.2484 6.625C14.3425 6.625 6 14.8516 6 25.6875C6 34.3516 11.4883 41.7656 19.3276 44.375C20.3341 44.5547 20.6879 43.9375 20.6879 43.4297C20.6879 42.9453 20.6643 40.2734 20.6643 38.6328C20.6643 38.6328 15.1603 39.8047 14.0044 36.3047C14.0044 36.3047 13.1081 34.0312 11.8185 33.4453C11.8185 33.4453 10.0179 32.2187 11.9444 32.2422C11.9444 32.2422 13.9022 32.3984 14.9794 34.2578C16.7014 37.2734 19.5871 36.4062 20.7115 35.8906C20.8923 34.6406 21.4034 33.7734 21.9696 33.2578C17.5742 32.7734 13.1395 32.1406 13.1395 24.625C13.1395 22.4766 13.7371 21.3984 14.9952 20.0234C14.7907 19.5156 14.1224 17.4219 15.1996 14.7187C16.8429 14.2109 20.625 16.8281 20.625 16.8281C22.1976 16.3906 23.8881 16.1641 25.5629 16.1641C27.2377 16.1641 28.9282 16.3906 30.5008 16.8281C30.5008 16.8281 34.2829 14.2031 35.9262 14.7187C37.0034 17.4297 36.3351 19.5156 36.1306 20.0234C37.3887 21.4062 38.1593 22.4844 38.1593 24.625C38.1593 32.1641 33.528 32.7656 29.1327 33.2578C29.856 33.875 30.4694 35.0469 30.4694 36.8828C30.4694 39.5156 30.4458 42.7734 30.4458 43.4141C30.4458 43.9219 30.8075 44.5391 31.806 44.3594C39.669 41.7656 45 34.3516 45 25.6875C45 14.8516 36.1542 6.625 25.2484 6.625ZM13.6427 33.5703C13.5405 33.6484 13.5641 33.8281 13.6978 33.9766C13.8236 34.1016 14.0044 34.1562 14.1067 34.0547C14.2089 33.9766 14.1853 33.7969 14.0516 33.6484C13.9258 33.5234 13.745 33.4687 13.6427 33.5703ZM12.7935 32.9375C12.7385 33.0391 12.8171 33.1641 12.9744 33.2422C13.1002 33.3203 13.2575 33.2969 13.3125 33.1875C13.3675 33.0859 13.2889 32.9609 13.1317 32.8828C12.9744 32.8359 12.8486 32.8594 12.7935 32.9375ZM15.3411 35.7187C15.2153 35.8203 15.2625 36.0547 15.4433 36.2031C15.6242 36.3828 15.8522 36.4062 15.9544 36.2812C16.0567 36.1797 16.0095 35.9453 15.8522 35.7969C15.6792 35.6172 15.4433 35.5937 15.3411 35.7187ZM14.4448 34.5703C14.319 34.6484 14.319 34.8516 14.4448 35.0312C14.5706 35.2109 14.7829 35.2891 14.8851 35.2109C15.0109 35.1094 15.0109 34.9062 14.8851 34.7266C14.775 34.5469 14.5706 34.4687 14.4448 34.5703Z" fill="white"/>
</svg>
