<svg xmlns="http://www.w3.org/2000/svg" viewBox="0 0 770 440"><defs><style>.cls-1{isolation:isolate;}.cls-2{fill:#d6e9bd;}.cls-3{fill:#30ba9d;}.cls-16,.cls-4{fill:#fff;}.cls-4{fill-rule:evenodd;}.cls-5{fill:#1a82c5;}.cls-6{fill:#67c07e;}.cls-7{fill:#3cafe1;}.cls-8{fill:#3092be;}.cls-9{fill:#2e2e2e;}.cls-10{mix-blend-mode:multiply;}.cls-11,.cls-13{fill:#27b0e5;}.cls-11{opacity:0.1;}.cls-12{fill:#eff2f5;}.cls-14{fill:#faa432;}.cls-15{fill:none;stroke:#fff;stroke-width:3.43px;}.cls-17{fill:#ced5d8;}.cls-18{fill:#5a6374;}.cls-19{fill:#085346;}.cls-20{fill:#d6644b;}.cls-21{fill:#f58458;}.cls-22{fill:#bacbe5;}.cls-23{fill:#f99b1f;}.cls-24{fill:#01a063;}.cls-25{fill:#ebf4fb;}.cls-26{fill:#fdc013;}.cls-27{fill:#dce3ea;}.cls-28{fill:#758088;}.cls-29{fill:#097363;}.cls-30{fill:#92c33e;}.cls-31{fill:#f48458;}.cls-32{fill:#26225c;}.cls-33{fill:#ffca15;}.cls-34{fill:#6abe52;}</style></defs><g class="cls-1"><g id="Layer_3" data-name="Layer 3"><path class="cls-2" d="M531.46,3.25,153.59,102.49a64.44,64.44,0,0,0-46.8,49.62L75.7,306.87A64.42,64.42,0,0,0,127.89,383l314.62,54.4a64.43,64.43,0,0,0,53.84-15.38L665.44,271.37a64.44,64.44,0,0,0,15.35-75.69L606,38A64.42,64.42,0,0,0,531.46,3.25Z"/><path class="cls-3" d="M376.27,113.8c-77.88,11.8-131.65,84.79-119.83,162.66S341.2,408.09,419.09,396.29s131.63-84.78,119.83-162.65S454.13,102,376.27,113.8Z"/><path class="cls-4" d="M378.25,163.1s-24.32,3.72-25.8,12.79-1.61,32.63-8.77,30.84-14.05-4.41-18.06,1.14c-.68.94-19,58.44-27.22,75.76-2.39,5-3.17,10.07.07,15.14,4.5,7.06,47.86,47.34,55.47,46.9,9.6-.55,17-21.89,27.48-34.95,32.6-40.73,45.17-20.24,80.92-11.2,15.36,3.88,34.75-4.06,40.81-20.33,2.87-7.72,15.72-66.53-15.6-86.8-21.4-13.84-52-33-69.28-43.74-25.58-15.93-15.29,5.73-4.55,21.49,11.82,17.33,1.48,21.35-12.27,18.85s-22.55-4.8-22.95-12.2-.25-13.69-.25-13.69ZM492.54,303.82s9.59-2,15.52-7.89,8.76,18.16,3.87,20.71-19.39-12.82-19.39-12.82Z"/><path class="cls-5" d="M406.64,110.79c-79.41-5.26-148.29,55.1-153.53,134.49S308.18,393.55,387.6,398.81s148.27-55.1,153.53-134.49S486,116,406.64,110.79Z"/><path class="cls-6" d="M537.69,223.32l-13.52,21.54-23.59,41L489,258.64l-20.6,12L456.57,246l-12.23,13.63-5.62-1.78L420.9,249.5l2.32,19.28,13.65,6.45L408.6,333.67l-11.2,6.2L389,317l-4.06-37.78-18.34-2-7-14.35L371.76,235l15.6-2.59,9.15,6.91,23-4.05-24-15.31L374.93,215l-.67-6.34,20.8-10.28-7.67-13.66,21.55-17.13,21.19,9,36.77-8.9s15.27-6.89,32.32-14.45A144.46,144.46,0,0,1,537.69,223.32Z"/><path class="cls-6" d="M314.07,137,305,150.62,289,175.68a2.25,2.25,0,0,0-.09,2.23l8.94,16.63a2.49,2.49,0,0,0,1.84,1.15,2.28,2.28,0,0,0,1.93-.94L311,181.46l15.63,21.75-34.8,27.24-18.72.54a2.24,2.24,0,0,0-2,1.35l-4.72,11.13a2.24,2.24,0,0,0,.19,2.13L278,262.25l-19.47-10.54-5.26-7.3A144,144,0,0,1,314.07,137Z"/><path class="cls-6" d="M298.46,312.73,287.34,287.1,302.56,258,339.34,296,302,361.49l-5.74-15.79,2.38-31.92A2.33,2.33,0,0,0,298.46,312.73Z"/><path class="cls-6" d="M340.4,179.08l-14-35c24.26-10.42,40.2-12.07,46.31-12.27l-9,30.85Z"/><path class="cls-7" d="M332.78,406.76c-1.65-.06-3.3-.17-4.92-.35l.22-2.05a70.37,70.37,0,0,0,8.14.38l0,2.06C335.09,406.82,333.92,406.8,332.78,406.76Zm11.82-.49-.24-2.06c2.64-.31,5.35-.75,8.06-1.32l.43,2C350.08,405.5,347.3,406,344.6,406.27Zm-25-1.28a61.15,61.15,0,0,1-8-2.51l.75-1.92a59.72,59.72,0,0,0,7.76,2.42Zm41.36-2.14-.59-2c2.56-.77,5.17-1.65,7.76-2.63l.74,1.93C366.21,401.17,363.55,402.07,360.94,402.85Zm-57-4a59.51,59.51,0,0,1-7-4.63l1.25-1.64a58.34,58.34,0,0,0,6.78,4.47ZM376.54,397l-.85-1.89c2.44-1.1,4.92-2.32,7.37-3.61l1,1.83C381.54,394.61,379,395.84,376.54,397Zm-85.91-8.26a66,66,0,0,1-5.52-6.33l1.64-1.26a63.31,63.31,0,0,0,5.35,6.13Zm100.66.53-1.06-1.78c2.32-1.37,4.66-2.84,7-4.37l1.14,1.73C396,386.36,393.63,387.85,391.29,389.24Zm13.89-9.16L404,378.4c2.19-1.58,4.4-3.25,6.57-5l1.28,1.63C409.62,376.79,407.39,378.48,405.18,380.08Zm-124.79-4.63a80.83,80.83,0,0,1-3.94-7.39l1.87-.88a80.69,80.69,0,0,0,3.84,7.21Zm137.84-5.67-1.34-1.57c2.06-1.76,4.13-3.6,6.17-5.46l1.39,1.52C422.4,366.15,420.31,368,418.23,369.78Zm-145-9.44c-.93-2.55-1.79-5.23-2.55-7.95l2-.56c.75,2.68,1.59,5.3,2.5,7.8Zm157.24-1.79L429,357.07c1.94-1.9,3.88-3.87,5.78-5.87l1.5,1.43C434.39,354.64,432.43,356.63,430.48,358.55ZM268.75,344.27c-.54-2.66-1-5.42-1.4-8.21l2-.29c.38,2.75.84,5.47,1.38,8.09ZM442,346.54l-1.54-1.39c1.82-2,3.64-4.11,5.41-6.21l1.58,1.33C445.62,342.39,443.78,344.49,442,346.54ZM266.44,327.78c-.17-2.06-.3-4.18-.39-6.29l2.06-.09c.09,2.09.22,4.18.39,6.21Zm186.23,6.07-1.62-1.29c1.69-2.12,3.39-4.32,5.05-6.52l1.65,1.24C456.08,329.5,454.37,331.71,452.67,333.85Zm10-13.27-1.68-1.2c1.57-2.22,3.15-4.5,4.68-6.79l1.72,1.15C465.82,316,464.23,318.34,462.64,320.58Zm9.25-13.79-1.75-1.11c1.46-2.31,2.92-4.67,4.32-7l1.78,1.06C474.82,302.09,473.36,304.47,471.89,306.79Zm8.52-14.25-1.81-1c.91-1.6,1.81-3.24,2.7-4.87l1.26-2.36,1.83,1-1.27,2.37C482.23,289.28,481.31,290.93,480.41,292.54Zm7.78-14.66-1.85-.92c1.22-2.46,2.43-5,3.59-7.43l1.87.88C490.64,272.9,489.42,275.41,488.19,277.88Zm7-15-1.9-.82c1.1-2.53,2.18-5.08,3.2-7.6l1.91.77C497.41,257.73,496.32,260.3,495.22,262.84Zm6.23-15.38-1.94-.73c1-2.57,1.9-5.19,2.78-7.76l2,.67C503.36,242.23,502.42,244.86,501.45,247.46Zm5.38-15.71-2-.62c.82-2.62,1.6-5.28,2.33-7.9l2,.55C508.44,226.42,507.65,229.1,506.83,231.75Zm4.45-16-2-.49c.66-2.68,1.28-5.38,1.84-8l2,.43C512.57,210.33,512,213.05,511.28,215.75Zm3.46-16.25-2-.36c.49-2.71.92-5.45,1.31-8.13l2,.29C515.67,194,515.23,196.77,514.74,199.5Zm2.33-16.45-2.06-.22c.29-2.74.52-5.5.7-8.2l2.06.13C517.59,177.49,517.36,180.28,517.07,183.05Zm-1-16.64c.06-2.77.06-5.53,0-8.22l2.07-.06c.06,2.73.07,5.53,0,8.33ZM515.64,150c-.21-2.77-.49-5.52-.84-8.17l2.05-.28c.35,2.7.64,5.49.85,8.29Zm-2.16-16.28c-.54-2.72-1.16-5.41-1.85-8l2-.54c.7,2.62,1.33,5.36,1.88,8.13ZM355.72,118.88l-1.45-1.48c2-1.94,4-3.86,6.05-5.7l1.39,1.53C359.71,115.05,357.69,117,355.72,118.88Zm153.49-1c-.93-2.61-2-5.16-3.06-7.58l1.88-.86c1.13,2.47,2.18,5.08,3.13,7.75ZM367.9,107.8l-1.33-1.58c2.13-1.8,4.3-3.57,6.44-5.25l1.28,1.63C372.16,104.26,370,106,367.9,107.8Zm134.49-4.74a72.7,72.7,0,0,0-4.49-6.8L499.55,95a73.75,73.75,0,0,1,4.63,7Zm-121.52-5.4L379.67,96c2.27-1.63,4.58-3.21,6.86-4.7L387.66,93C385.4,94.48,383.12,96.05,380.87,97.66Zm13.78-9-1-1.79c2.43-1.42,4.88-2.77,7.29-4l.95,1.84C399.46,85.94,397,87.28,394.65,88.68Zm98,1.38a59.36,59.36,0,0,0-6-5.46L487.9,83a62.44,62.44,0,0,1,6.22,5.65Zm-83.39-8.91-.84-1.89c2.58-1.15,5.18-2.21,7.72-3.15l.72,1.94C414.33,79,411.78,80,409.24,81.15ZM479.92,80c-.55-.32-1.11-.64-1.67-.94a55.29,55.29,0,0,0-5.61-2.66l.78-1.92a59.5,59.5,0,0,1,5.82,2.76c.58.31,1.16.64,1.73,1Zm-55.3-4.53-.57-2c2.72-.78,5.45-1.45,8.12-2l.4,2C430,74.07,427.29,74.72,424.62,75.49Zm40.3-1.62a61.26,61.26,0,0,0-8-1.5l.25-2.05a65.45,65.45,0,0,1,8.26,1.54Zm-24.27-1.56-.21-2.06a79.28,79.28,0,0,1,8.36-.44v2.07A75.35,75.35,0,0,0,440.65,72.31Z"/><path class="cls-7" d="M480.06,360l.05-2.07c2.76.06,5.53.06,8.22,0l.05,2.07C485.66,360,482.86,360,480.06,360Zm-8.31-.36c-2.72-.17-5.51-.41-8.28-.7l.21-2.05c2.75.28,5.51.52,8.21.69Zm24.95-.07-.16-2.06c2.76-.21,5.51-.49,8.17-.84l.27,2.05C502.29,359,499.5,359.33,496.7,359.54Zm-41.48-1.64c-2.7-.39-5.47-.83-8.21-1.32l.37-2c2.71.48,5.45.92,8.13,1.3ZM438.86,355c-2.67-.57-5.4-1.2-8.09-1.86l.49-2c2.67.66,5.38,1.28,8,1.84Zm74.35,2.36-.4-2c2.73-.53,5.41-1.15,8-1.85l.54,2C518.71,356.18,516,356.81,513.21,357.35ZM422.73,351c-2.63-.74-5.31-1.53-8-2.35l.61-2c2.63.82,5.29,1.61,7.91,2.34Zm106.58,2-.69-1.95c2.62-.93,5.17-2,7.59-3.06l.86,1.88C534.59,351,532,352.05,529.31,353Zm-122.43-6.91c-2.6-.89-5.23-1.83-7.82-2.8l.73-1.94c2.57,1,5.18,1.9,7.76,2.78ZM544.5,346l-1-1.79a71.25,71.25,0,0,0,6.79-4.49l1.24,1.66A75.49,75.49,0,0,1,544.5,346Zm-153.17-5.74c-2.55-1-5.13-2.12-7.66-3.22l.83-1.9c2.51,1.1,5.07,2.18,7.6,3.2Zm-15.22-6.64c-2.49-1.16-5-2.38-7.47-3.61l.92-1.85c2.45,1.23,4.95,2.43,7.43,3.59ZM557.89,336l-1.43-1.49a60.67,60.67,0,0,0,5.46-6l1.62,1.29A61.13,61.13,0,0,1,557.89,336Zm-196.63-9.74L358.89,325c-1.64-.89-3.29-1.8-4.91-2.71l1-1.8c1.61.9,3.25,1.81,4.88,2.69l2.36,1.27Zm-14.46-8.15c-2.37-1.42-4.75-2.88-7.07-4.35l1.11-1.74c2.3,1.45,4.66,2.91,7,4.32Zm221.49,4.73-1.79-1.05c.32-.54.64-1.1.94-1.66a58.81,58.81,0,0,0,2.66-5.62l1.91.78a59.42,59.42,0,0,1-2.75,5.82C568.94,321.66,568.62,322.24,568.29,322.81ZM332.77,309.2c-2.29-1.54-4.59-3.12-6.83-4.71l1.2-1.69c2.22,1.58,4.5,3.15,6.79,4.68Zm-13.53-9.61c-2.22-1.66-4.43-3.37-6.57-5.08l1.29-1.62c2.13,1.7,4.32,3.4,6.52,5.05Zm255.41,7.69-2-.51a63.47,63.47,0,0,0,1.5-8l2.05.25A63.73,63.73,0,0,1,574.65,307.28Zm-268.4-18c-2.12-1.79-4.23-3.63-6.27-5.46l1.38-1.54c2,1.82,4.12,3.64,6.22,5.42Zm268.39,1.39a77.94,77.94,0,0,0-.43-8.14l2.06-.22a82.25,82.25,0,0,1,.44,8.37ZM293.88,278.15c-2-1.91-4-3.88-5.91-5.83l1.47-1.45c1.91,1.94,3.88,3.88,5.87,5.79ZM282.25,266.3c-1.88-2.05-3.74-4.15-5.51-6.23l1.57-1.34c1.76,2.06,3.6,4.14,5.46,6.17ZM573,274.42c-.53-2.61-1.18-5.29-2-7.95l2-.57c.78,2.72,1.45,5.45,2,8.11ZM271.46,253.65c-1.73-2.19-3.42-4.42-5-6.63l1.67-1.21c1.59,2.18,3.26,4.39,5,6.56Zm297,5c-.93-2.5-2-5.06-3.1-7.59l1.89-.84c1.15,2.57,2.21,5.17,3.15,7.72ZM261.7,240.18c-1.54-2.33-3-4.7-4.42-7.05l1.78-1c1.37,2.31,2.84,4.66,4.37,7Zm300.11,3.51c-1.23-2.39-2.57-4.81-4-7.2l1.78-1c1.42,2.42,2.78,4.87,4,7.29Zm-308.6-17.82c-1.31-2.49-2.54-5-3.66-7.48l1.88-.86c1.11,2.44,2.32,4.92,3.61,7.38Zm300.3,3.63c-1.47-2.25-3-4.54-4.65-6.78l1.68-1.21c1.63,2.27,3.21,4.58,4.7,6.86ZM246.35,210.69c-1-2.64-1.91-5.3-2.68-7.9l2-.6c.76,2.56,1.65,5.17,2.63,7.77Zm297.57,5.44c-1.66-2.13-3.41-4.27-5.2-6.38l1.58-1.34c1.8,2.13,3.57,4.3,5.25,6.45ZM241.61,194.69c-.59-2.77-1-5.55-1.36-8.25l2.06-.24c.3,2.64.75,5.35,1.32,8.07Zm291.68,8.87c-1.83-2-3.73-4-5.65-6l1.48-1.44c1.94,2,3.86,4,5.7,6ZM239.71,178.09c0-1.16,0-2.32,0-3.47.05-1.65.17-3.3.34-4.91l2.06.22c-.17,1.56-.28,3.16-.34,4.77,0,1.11,0,2.24,0,3.36Zm3.82-16.18-2-.48a62.35,62.35,0,0,1,2.51-8l1.93.75A59.75,59.75,0,0,0,243.53,161.91Zm5.91-15.1-1.8-1a61.12,61.12,0,0,1,4.62-7l1.65,1.26A57,57,0,0,0,249.44,146.81Zm9.83-12.87-1.46-1.46a67.42,67.42,0,0,1,6.32-5.53l1.26,1.64A67.35,67.35,0,0,0,259.27,133.94ZM272.13,124l-1.07-1.78c2.34-1.4,4.82-2.73,7.39-3.94l.88,1.88A80.49,80.49,0,0,0,272.13
,124Zm14.75-7-.71-2c2.55-.93,5.23-1.79,7.95-2.54l.56,2C292,115.27,289.38,116.11,286.88,117Zm15.77-4.41-.41-2c2.66-.54,5.42-1,8.21-1.4l.29,2C308,111.62,305.27,112.09,302.65,112.62Zm68.28.93-2.86-.52.36-2,2.88.51Zm-52-3.21-.16-2.06c2.71-.22,5.5-.38,8.31-.46l.06,2.06C324.34,110,321.58,110.12,318.9,110.34Zm41,1.42c-2.74-.37-5.49-.7-8.18-1l.21-2.06c2.71.28,5.49.61,8.25,1Zm-16.38-1.62c-2.76-.16-5.52-.27-8.22-.31l0-2.07c2.73,0,5.52.15,8.31.31Z"/><rect class="cls-8" x="359.55" y="127.25" width="31.6" height="4.08" transform="translate(-14.22 205.72) rotate(-30.11)"/><path class="cls-9" d="M319,160.13,278,89.38a4.41,4.41,0,0,1,1.6-6L383.55,23.09a4.4,4.4,0,0,1,6,1.61l41,70.74"/><rect class="cls-3" x="295.17" y="54.22" width="115.63" height="71.84" transform="translate(2.41 189.22) rotate(-30.11)"/><path class="cls-7" d="M449.4,89.59,447,85.45l-60.18,34.9-.79.46c.57,2.31-1.26,3.31-3.42,4.57l-13.78,8c-2.16,1.25-3.95,2.34-5.66.69l-.79.46-60.18,34.89,2.4,4.14s7.17.84,10.85-1.3l46.06-26.71,35.3-20.47,46.07-26.71C446.57,96.23,449.4,89.59,449.4,89.59Z"/><g class="cls-10"><polygon class="cls-11" points="406.79 100.39 386.12 64.75 368.34 34.08 349.88 44.78 298.39 74.64 306.06 87.87 316.18 105.31 336.84 140.95 406.79 100.39"/></g><polygon class="cls-12" points="404.51 101.71 377.69 55.47 364.25 32.29 337.73 25.47 290.63 52.78 300.58 69.94 313.7 92.58 340.52 138.82 404.51 101.71"/><polygon class="cls-13" points="347.37 42.08 364.25 32.29 337.73 25.47 347.37 42.08"/><polygon class="cls-11" points="364.25 32.29 347.37 42.08 373.88 48.9 364.25 32.29"/><rect class="cls-3" x="313.1" y="59.66" width="22.63" height="1.82" transform="translate(13.39 170.91) rotate(-30.11)"/><rect class="cls-7" x="316.01" y="61.54" width="45.96" height="1.82" transform="translate(14.41 178.47) rotate(-30.11)"/><rect class="cls-7" x="318.88" y="66.48" width="45.96" height="1.82" transform="translate(12.32 180.58) rotate(-30.11)"/><rect class="cls-7" x="321.74" y="71.42" width="45.96" height="1.82" transform="translate(10.22 182.68) rotate(-30.11)"/><rect class="cls-7" x="324.61" y="76.36" width="45.96" height="1.82" transform="matrix(0.87, -0.5, 0.5, 0.87, 8.13, 184.78)"/><rect class="cls-7" x="327.47" y="81.3" width="45.96" height="1.82" transform="translate(6.04 186.89) rotate(-30.11)"/><rect class="cls-7" x="330.34" y="86.24" width="45.96" height="1.82" transform="translate(3.95 188.99) rotate(-30.11)"/><rect class="cls-7" x="333.2" y="91.18" width="45.96" height="1.82" transform="translate(1.86 191.1) rotate(-30.11)"/><rect class="cls-9" x="500.61" y="242.31" width="100.1" height="161.06" rx="4.2" transform="translate(221.31 869.62) rotate(-89.32)"/><rect class="cls-14" x="508.84" y="257.85" width="83.64" height="129.98" transform="translate(221.3 869.62) rotate(-89.32)"/><line class="cls-15" x1="621.93" y1="312.46" x2="621.67" y2="334.91"/><line class="cls-15" x1="479.75" y1="319.25" x2="479.68" y2="324.74"/><rect class="cls-3" x="523.34" y="259.81" width="56.43" height="113.81" transform="translate(227.94 864.26) rotate(-89.28)"/><rect class="cls-16" x="544.88" y="294.51" width="12.46" height="113.77" transform="translate(192.81 898.04) rotate(-89.28)"/><rect class="cls-17" x="546.05" y="307.85" width="1.65" height="86.98" transform="translate(188.69 893.76) rotate(-89.28)"/><rect class="cls-14" x="516.63" y="336.91" width="1.65" height="28.12" transform="translate(160 863.97) rotate(-89.28)"/><path class="cls-18" d="M497.6,352.85a.42.42,0,0,1-.4-.47l0-3.44a.43.43,0,0,1,.42-.46.56.56,0,0,1,.26.08l3,1.76a.46.46,0,0,1,.25.39.45.45,0,0,1-.26.39l-3,1.68a.54.54,0,0,1-.27.07Zm.06-4a.12.12,0,0,0,0,.05l0,3.45s0,0,0,.05l.05,0,3-1.68.05,0-.05,0-3-1.76a.06.06,0,0,0,0,0Z"/><rect class="cls-18" x="594.64" y="351.73" width="4.72" height="0.47" transform="translate(237.57 944.49) rotate(-89.28)"/><rect class="cls-18" x="593.92" y="352.18" width="3.77" height="0.47" transform="translate(235.93 943.75) rotate(-89.28)"/><rect class="cls-18" x="593.2" y="352.64" width="2.83" height="0.47" transform="translate(234.3 943.01) rotate(-89.28)"/><rect class="cls-18" x="592.48" y="353.1" width="1.89" height="0.47" transform="translate(232.67 942.27) rotate(-89.28)"/><path class="cls-18" d="M604.38,354.41l-4.31-.06a.19.19,0,0,1-.19-.2l0-4.3a.2.2,0,0,1,.2-.2l2.14,0a.2.2,0,0,1,.19.2.19.19,0,0,1-.2.19l-1.94,0-.05,3.91,3.91.05,0-1.94a.19.19,0,0,1,.2-.19.19.19,0,0,1,.19.2l0,2.13a.21.21,0,0,1-.2.2Z"/><path class="cls-18" d="M604.42,351.27a.2.2,0,0,1-.2-.2v-1h-1a.19.19,0,0,1-.19-.2.2.2,0,0,1,.2-.2h0l1.17,0a.2.2,0,0,1,.19.2v1.16a.21.21,0,0,1-.2.2Z"/><path class="cls-18" d="M602.56,351.93a.2.2,0,0,1-.14-.06.19.19,0,0,1,0-.28l1.71-1.67a.2.2,0,0,1,.28,0,.19.19,0,0,1,0,.28l-1.71,1.67a.2.2,0,0,1-.14.06Z"/><path class="cls-16" d="M546.19,323.63a1.44,1.44,0,0,1-1.38-1.61L545,310.2a1.44,1.44,0,0,1,1.42-1.58,1.85,1.85,0,0,1,.9.28l10.16,6a1.46,1.46,0,0,1,0,2.67l-10.31,5.78a1.74,1.74,0,0,1-.91.25Zm.19-13.6s0,.09,0,.19L546.22,322a.39.39,0,0,0,0,.18.46.46,0,0,0,.18-.07l10.3-5.78a.49.49,0,0,0,.16-.12l-.16-.11-10.15-6a.58.58,0,0,0-.19-.08Z"/><path class="cls-19" d="M635.26,76c-11.8-9.93-62.28-13.82-75-38.07-7.07-13.51-20.24,22-16.12,35.84C520,149.16,532,174.15,553.29,172.58,666.3,164.29,664.86,100.86,635.26,76Z"/><path class="cls-20" d="M534.15,197s1.12,5-23.07,11.17-61.19,9.16-61.19,9.16L504.35,198S525.53,191.55,534.15,197Z"/><path class="cls-20" d="M469.36,214.31c-11.4,3.26-14.65,10.39-18.67,13.46a82,82,0,0,0-7.76,7c1.13-5.6,4.78-6.79,6.17-8.9s1.14-1.18-3-.32c-2.35.49-5.24,5.73-7.52,8.82-2,2.68-3.53,3.29-3.53,3.29a53.29,53.29,0,0,1,4.6-9.37,60.58,60.58,0,0,1,9.25-11.15c2.15-1.66,9.71-4.11,15.34-5C470.6,211.27,477.58,211.94,469.36,214.31Z"/><path class="cls-21" d="M449.55,217.19s-8.09,4.73-9.29,6.32c-.84,1.1-4,7.08-4,7.08a12,12,0,0,0,4.5-3.78C442.17,224.5,449.55,217.19,449.55,217.19Z"/><path class="cls-22" d="M520.64,189.66s22.47-5,24.74,8.52c1.3,7.68-3,11.73-9.81,13.11-12.67,2.6-27.25,4.87-27.25,4.87l-12.16-18.52Z"/><path class="cls-22" d="M519.37,178.5l6.26-61.42S525.18,101,531,101.35c8.35.47,9.94,14.34,10.67,19.33,1.47,10.13,3.61,14.14,3.45,39.68-.1,15.75,1,33.54,0,44.16-.67,7.33-7.81-.8-15.25-1.49C516,201.72,519.37,178.5,519.37,178.5Z"/><polygon class="cls-21" points="384.6 350.52 364.09 395.02 335.63 395.64 321.26 392.73 352.2 385.38 368.76 344.08 384.6 350.52"/><path class="cls-19" d="M361,402l-3.78-.88-2.11-4.6-22.95,1-18.48-3.44a3.39,3.39,0,0,1,1.24-1.86c3.27-1.76,17.62-2.61,17.62-2.61s-1.52,4,.12,4.83,19.33-.26,23.59-.86c7.31-1,11.09-2.88,10.77-1.91C366.5,393.14,361,402,361,402Z"/><path class="cls-23" d="M498.18,260.09l-67.06-1.79-50,109.38-20.69-8.18,48.75-131.61s3.86-8.31,24.11-8.31c19.72,0,99.28-2.18,108.32.34C563.08,225.88,494.51,241.92,498.18,260.09Z"/><path class="cls-19" d="M545.41,79.25l.4-12.37a23,23,0,0,0,10.6-30.79l-3.78-7.77a23,23,0,0,0-30.8-10.62l-5.17,2.51c-11.44,5.59-23.77,11.75-18.2,23.2C498.46,43.41,497,115.29,545.41,79.25Z"/><path class="cls-21" d="M508.18,34.73c1.14,1.57,2.08,3.38,3.21,5C520,52,533,58.17,542.4,55.11a69.52,69.52,0,0,0,10.76,14.61c4.19,4.44,13,7,13,7,6,8.55,2.61,33.18-18.91,35.72-13,1.52-10.3-12.12-5.78-20.62,2.22-4.18,4.18-8.93,3-13.72s-6.71-10.16-11.3-7c-24,16.36-29.45-15.4-26.1-29.23C507.33,40.79,508.52,35.21,508.18,34.73Z"/><path class="cls-24" d="M575.61,238.42s-9.85,2-12.57,3.06c-3.64,1.37-14.32-.36-14.32-.36s-1.36-52.7-4-71.08-7.34-23.38-7.3-29.13c0-9.2.82-11.34,2.43-18.48s-3.12-16.61-1.5-14.8c2.59,2.92,12.33,7.46,21.43-2.6C561.39,103.3,575.61,238.42,575.61,238.42Z"/><path class="cls-25" d="M540.72,86.27s-13.37,13.47-12.83,17.9-.82,23,2.24,42.83,5.55,24.72,6,39.17-2.85,17.68-1.63,35.43c1,13.9,3.14,26.17,3.14,26.17a11.55,11.55,0,0,0,11.07-3.41c4.76-5.14,3-53.49,1.28-65.4s-8.74-43.11-8.33-51.4,3.1-28.1,4.57-30.7C549.94,90.36,541.77,86.94,540.72,86.27Z"/><path class="cls-22" d="M540.68,85a6.85,6.85,0,0,0,1.65,1.8,30.9,30.9,0,0,1,3.92,3.57s-2.68-1.29-3.69,1c-1.26,2.85-2,9.25-2,9.25s-4.94-8.17-3.77-10.76C538.89,85.19,540.68,85,540.68,85Z"/><polygon class="cls-21" points="450.75 360.23 449.75 391.38 443.4 398.86 426.49 408.6 413.95 406.33 436.06 389.86 437.68 357.17 450.75 360.23"/><path class="cls-19" d="M448.79,398.22l-5.69,4-1.74-1.38-18.84,10.33s-9.94,5-12.69,1.76c-.9-1,.22-4.45,3.41-6.82a27.15,27.15,0,0,1,4.06-2.59s.65,2.43,6.29,3.36c1.8.31,13-7.09,16.83-9,6.9-3.44,9.65-8.28,10-7.83C451.31,391.29,448.79,398.22,448.79,398.22Z"/><path class="cls-26" d="M583.5,196l-8.09,19.12-13.9,1.71-112.23,7.14s-10.06-3.1-16.44,12.76c-9.11,22.59,2.79,135.64,2.79,135.64l16.63-.26,9-106.59s107.87,18.87,138.93,9.33c11.93-3.65,21-24.71,19.33-46-1.33-16.68-12.45-32-12.45-32Z"/><path class="cls-25" d="M568.24,236.11s-5.21-47-8.17-69.31-2.3-59.64-3-65-3.49-13.07-3.49-13.07S559,76.58,566.11,77c6.23.35,19.64,9.44,29.15,13.3,6.58,2.68,9.37,75.17,10,79.14,2.13,14.23,9.12,30.56,13.66,41.83,3.61,9,6.4,22.35,6.4,22.35S589.35,229.37,568.24,236.11Z"/><path class="cls-22" d="M564.78,73.29l-5.29,6s-7.38,10.2-5,8.76c3-1.81,6.54,8.82,6.54,8.82l9.81-20.12Z"/><path class="cls-21" d="M607.81,187.61s8.2,5.84-22.82,9-77.29.89-77.29.89l70.94-13.43S598.21,180.12,607.81,187.61Z"/><path class="cls-21" d="M532.31,197.09c-14.7,1.93-20.1,9.46-25.64,12.3a105.75,105.75,0,0,0-10.93,6.72c2.48-6.13,7.22-6.94,9.35-9.09s1.62-1.15-3.66-.83c-3,.19-7.58,5.64-11,8.78-2.94,2.71-5,3.17-5,3.17a60.13,60.13,0,0,1,7.47-9.83,76.92,76.92,0,0,1,13.54-11.18c3-1.52,12.78-3.12,19.91-3.19C534.42,193.86,542.9,195.71,532.31,197.09Z"/><path class="cls-21" d="M507.3,197.31s-10.89,4.06-12.69,5.68c-1.23,1.11-6.23,7.35-6.23,7.35s4.11-1.17,6.27-3.57S507.3,197.31,507.3,197.31Z"/><path class="cls-22" d="M589.45,178.82l-10.09-68.33s2.5-14.08,6.87-18.89c5.18-5.72,9-1.32,9-1.32s17.58,6.77,18.39,60.86c.57,37,4,52.26-12,53.86-14.88,1.51-41.77,2.87-41.77,2.87l-5.72-21.23Z"/><rect class="cls-27" x="407.32" y="215.79" width="97.92" height="2.01"/><path class="cls-12" d="M462,215.67a2.66,2.66,0,0,1-2.48,2.82H409.32c-1.35,0-3.22-1-4.88-5l-24.83-45.33c0-2,1.54-3.15,2.89-2.83L434,166.92c1.37.32,2.48,1.38,3.26,3.43Z"/><path class="cls-28" d="M4
55.94,217.81h49.54a18.34,18.34,0,0,1-8,1.55H414.94a18.33,18.33,0,0,1-8-1.55Z"/><polygon class="cls-16" points="239.27 266.76 237.09 278.21 220.18 262.48 235.52 265.32 239.27 266.76"/><polygon class="cls-20" points="204.87 290.49 221.89 295.4 221.63 270.54 211.15 274.68 204.87 290.49"/><path class="cls-21" d="M190,322.06c0,.45-3.29,30.17-4.46,42.5S179,392.86,178.94,393s-10.3,7.56-9.3,8.59,17.13-.59,17.55-1,6.53-11.17,6.53-11.17,8.13-63.55,6-70.88S189.67,311.92,190,322.06Z"/><path class="cls-21" d="M243.13,403.09s38.71.26,37.45-11.88S257.21,364,257.21,364l-26.1,25.59Z"/><path class="cls-20" d="M256.32,382.94s-16.59-9.88,10.77,5.36c-8,20.1-49.69,15.36-44.16,13.66-8.87-3.7,13.81-16.45,13.81-16.45Z"/><path class="cls-29" d="M225,393.3c-.22,0-34.69,2.42-37.65-6.87s3-24.15,3-24.15l4.27-3.93-1.23-7.45a1.7,1.7,0,0,1-1-1.81c.23-1.27,2.48-21.78-.82-31.23-1.12-3.22,2.51-23.16,7.3-28.23,9.25-9.78,23.81-5.12,23.81-5.12s3.46.65,7.46,5.22c-2,20.27,3.43,62.54,3.43,62.54s22.49,5.31,26.48,12.93,5.23,17.67,2.81,18.8-7.6.61-7.55,1.5,8.18,8.09-.73,10.26S236.33,394,236.33,394Z"/><path class="cls-20" d="M203.26,401.63s25.56,2.59,28.55.64-1.92-8.13-1.92-8.13l-27.17-2.31Z"/><path class="cls-30" d="M221.9,348s-15.05,9.46-28.51,2.95c-1.19,5.32-3,11.38-3,11.38s23,5.6,32-6.46C223.32,350.25,221.9,348,221.9,348Z"/><path class="cls-21" d="M219.67,302.21c.08-.22,3.39-11.42,10.48-12.48,0,0,8.5,11.29,4.24,23.13.75,13.58-2.34,39.31-2,46.21s1.94,42.12,3.59,43.82,5,8.94,4.14,10.48-3.44-5-3.81-4.55.32,5.93-.86,6-2.17-6-2.7-5.8.39,7.11-.8,7.18-1.64-8.24-1.64-8.24-.8,7.18-2,7.25c-1.34.07-.46-8.31-.46-8.31s-1.75,7.19-3.23,6.13c-1-1.18,1.72-12,1.72-12s-7-42.93-4.91-49.79C220.83,333.72,218.78,304.66,219.67,302.21Z"/><path class="cls-19" d="M198.08,393c0-.22-5.76-11.48-9.9-6.91s-2.2,26.48-1.21,26.8,3.81-1.11,3.81-1.11Z"/><path class="cls-19" d="M197.69,392.19s-7.48,18.27-9.4,20.35c.18-6.25,8.06-21,5.08-26.14A16.25,16.25,0,0,1,197.69,392.19Z"/><path class="cls-19" d="M204.08,391.09s-3.74-6.28-6.42-4.94-9.55,27.32-8.14,28.7,11.35-8.59,13-12.11S204.08,391.09,204.08,391.09Z"/><path class="cls-20" d="M213.15,280.47A27.35,27.35,0,0,1,192.52,269c-2.14-2.92-3.26-6.58-4.75-9.69.07,1.92.18,4.26.24,6.6.06,3,.18,5.92.1,8.88-.17,6.45-3.59,11.09-8.56,14.8a9.63,9.63,0,0,1-1.29.64,16.17,16.17,0,0,1-.11-1.65c.33-6.53-1.3-12.74-3.09-18.92-1.69-5.82-3.42-11.61-3.06-17.78s2.58-10.88,8.26-13.64c4.28-2.08,7-1.51,11,2.23a30,30,0,0,1,10.58-8.57c1.16-.54,2.28-1.18,3.41-1.77l5.88-1.45A12.1,12.1,0,0,0,213,229c9,0,16.67,3,22,10.49,3.58,5,4.37,10.5,1.47,16.16a10.75,10.75,0,0,1-2.2,2.28c-.15-1.43-.3-2.86-.46-4.3a20.32,20.32,0,0,0-3.28-9.53c-1.93,7.82-8.08,11-14.08,14.28,1.36,4.58,2.16,9.1,1.14,13.76a1.4,1.4,0,0,1-.52-.8c-.89-2.93-1.63-5.92-2.73-8.77a4.45,4.45,0,0,0-4.09-3.15,6.87,6.87,0,0,0-6.62,5.64,6.36,6.36,0,0,0,4.31,7.44c1.61.46,3.31.61,5.35,1,.33,2,.71,4.3,1.08,6.57Z"/><path class="cls-31" d="M214.36,280l-1.08-6.57c-2-.36-3.74-.51-5.35-1a6.36,6.36,0,0,1-4.31-7.44,6.87,6.87,0,0,1,6.62-5.64,4.45,4.45,0,0,1,4.09,3.15c1.1,2.85,1.84,5.84,2.73,8.77a1.4,1.4,0,0,0,.52.8c1-4.66.22-9.18-1.14-13.76,6-3.33,12.15-6.46,14.08-14.28a20.32,20.32,0,0,1,3.28,9.53c.16,1.44.31,2.87.46,4.3.78.49,1.53,1.31,2.36,1.4a2.69,2.69,0,0,1,2.68,3c0,1.36,0,2.73,0,4.45l-10.68-.41c.73,4.42,5.49,7.81,9.7,6.5a29.91,29.91,0,0,1-1.2,5.36c-1.87,4.4-8.35,2.68-12.28,2.63C223.83,280.83,214.57,281.21,214.36,280Z"/><path class="cls-20" d="M277.2,350.17c-4.84,10.21-9.36,20.56-14.17,30.78-4.43,11.47-8.94,22.8-11.33,28-.47,1.47-.9,2.94-1.36,4.41-2.05,6.58,3.43,4.47,4.65,5.05,2.66,1.29,10.2.19,10.48-.92s18.16-64.63,18.16-64.63l-6.22-3.18Z"/><path class="cls-32" d="M328.17,418s16.46-1.75,18.21-5.93-7.17-6.12-7.17-6.12S328.68,413.49,328.17,418Z"/><path class="cls-33" d="M261.33,403.65s-1.24,15,7.73,17,55.58,1.66,57.51,0,21.95-19.72,24.65-26.61-.61-14.38-3.74-15.88S322,388.3,322,388.3Z"/><path class="cls-21" d="M346.35,301.76a10,10,0,0,0-1.54-2c-2.45-2.86-2.38-6.26-2.64-9.79a51.43,51.43,0,0,0-3.24-14.58.27.27,0,0,0-.14-.14c-1.8-.81-18.32,10.19-19.67,11.76a17.59,17.59,0,0,0-3.57,15.66,14.36,14.36,0,0,0-2.77,1.16c-3.37,1.86-12.65,14.72-12.11,15.34,0,0,22.19,12.31,22.61,9.69s2.17-5.55,4.91-6.09c.7-.13,1.38-.2,2.08-.38l4.51-1.21,6.58-1.75.44-.44,2.35-7c.45-1.34.86-2.7,1.35-4C346.21,306,347.38,303.87,346.35,301.76Z"/><path class="cls-21" d="M354.45,419.92l1.41,0,1.22,0-2.18-1.75h-.44l-4.18-1.88c-1.55-.7-4.26-1.32-5.08-2.9a13.91,13.91,0,0,1-.95-4c-.33-2-.61-4-.87-6-.24-1.77-.39-3.58-.74-5.34-1.42-7.36-3.07-14.67-4.27-22.07-7.2-44.74-12.46-37.14-14.44-47.38L318,364l12.22,36.82c1.59,4.81,2.93,14.51,6.09,18.35,1.2,1.47,2.65,1.11,4.35,1.07l5.15-.12Z"/><path class="cls-19" d="M321.65,319.72c.18,0,5.43-1.54,5.91-1.7s3.16-5.94,1.79-11.5c-2.51.16-7.28-4.45-4.78-12.72,1.06-3.47,4.95-.7,6.82.59a8.36,8.36,0,0,1,2.23,2.86l3.45,5.74.37-.11L337,286c0-.22,0-.38.11-.56a51.19,51.19,0,0,0,7.1-.45l5.88-.4a12.3,12.3,0,0,1-2.18-1.75l-3.49-5.23c.33.47,5.05-.2,5.6-.23l4.44-.21L341.8,266.65l3.93-5.23-19.64,1.31c.54-.94-29.58,10.28-32.18,28.52-1.44,10,4.63,21.1,11.2,23.54S321.65,319.72,321.65,319.72Z"/><path class="cls-34" d="M319.57,396.06c.47-3.32-.77-7.2-1.21-10.45-.73-5.46-.27-9.43.44-14.87,0,0,1.47,3.21,2.66,3s11.77-9.65,13.38-19.49c0,0-8.41-25.66-15.17-31.31-3.82-3.19-11.24-5-17.95-5.21-1.23,1.64-2.45,3.28-3.66,4.94q-9.48,13.05-18,26.82-5.28,8.57-10.17,17.37c-5.12,12.1-11.39,29.24-9.7,37.17,2.62,4.83,35.58,5.38,48.54,1.8,3.82-1.06,7.81-3.57,9.87-7.05A7.47,7.47,0,0,0,319.57,396.06Z"/><path class="cls-21" d="M330.31,301.66c-.27-.63-2.2-1.49-1.58-3.05a2.18,2.18,0,0,1,1.95-1.54s-3.29-5.59-5-3.52-1.89,8.82,1.47,10.23S330.82,302.86,330.31,301.66Z"/><path class="cls-34" d="M269.34,367.36c-.83,1.74,13.81,3.95,13.81,3.95s26.53-60.2,18.57-53.55C282.49,333.82,273.76,358,269.34,367.36Z"/><path class="cls-16" d="M345.5,308l-4.33-.43S341.87,322.58,345.5,308Z"/><path class="cls-16" d="M509.91,62.69l15.87-3.18S523.88,84.91,509.91,62.69Z"/></g></g></svg>